HIERARCHY
ROOT Hips
{
	OFFSET 0.0000 0.0000 0.0000
	CHANNELS 6 Xposition Yposition Zposition Zrotation Xrotation Yrotation
	JOINT Ab
	{
		OFFSET -0.0000 8.0846 -0.0000
		CHANNELS 3 Zrotation Xrotation Yrotation
		JOINT Chest
		{
			OFFSET -0.0000 25.0068 -0.0000
			CHANNELS 3 Zrotation Xrotation Yrotation
			JOINT Neck
			{
				OFFSET -0.0000 25.0068 0.0000
				CHANNELS 3 Zrotation Xrotation Yrotation
				JOINT Head
				{
					OFFSET -0.0000 10.7556 0.0000
					CHANNELS 3 Zrotation Xrotation Yrotation
					End Site
					{
						OFFSET -0.0000 16.6222 0.0000
					}
				}
			}
			JOINT LeftCollar
			{
				OFFSET -0.0000 25.0068 0.0000
				CHANNELS 3 Zrotation Xrotation Yrotation
				JOINT LeftShoulder
				{
					OFFSET 19.5556 -0.0000 0.0000
					CHANNELS 3 Zrotation Xrotation Yrotation
					JOINT LeftElbow
					{
						OFFSET 27.1828 0.0000 0.0000
						CHANNELS 3 Zrotation Xrotation Yrotation
						JOINT LeftWrist
						{
							OFFSET 23.3157 0.0000 0.0000
							CHANNELS 3 Zrotation Xrotation Yrotation
							End Site
							{
								OFFSET 0.0000 -14.6667 0.0000
							}
						}
					}
				}
			}
			JOINT RightCollar
			{
				OFFSET -0.0000 25.0068 0.0000
				CHANNELS 3 Zrotation Xrotation Yrotation
				JOINT RightShoulder
				{
					OFFSET -19.5556 0.0000 0.0000
					CHANNELS 3 Zrotation Xrotation Yrotation
					JOINT RightElbow
					{
						OFFSET -27.1828 0.0000 0.0000
						CHANNELS 3 Zrotation Xrotation Yrotation
						JOINT RightWrist
						{
							OFFSET -23.3157 0.0000 0.0000
							CHANNELS 3 Zrotation Xrotation Yrotation
							End Site
							{
								OFFSET -0.0000 -14.6667 0.0000
							}
						}
					}
				}
			}
		}
	}
	JOINT LeftHip
	{
		OFFSET 11.7333 0.0000 0.0000
		CHANNELS 3 Zrotation Xrotation Yrotation
		JOINT LeftKnee
		{
			OFFSET -0.0000 -40.8688 0.0000
			CHANNELS 3 Zrotation Xrotation Yrotation
			JOINT LeftAnkle
			{
				OFFSET -0.0000 -44.4337 0.0000
				CHANNELS 3 Zrotation Xrotation Yrotation
				End Site
				{
					OFFSET -0.0000 -4.8889 16.6222
				}
			}
		}
	}
	JOINT RightHip
	{
		OFFSET -11.7333 0.0000 0.0000
		CHANNELS 3 Zrotation Xrotation Yrotation
		JOINT RightKnee
		{
			OFFSET -0.0000 -40.8688 0.0000
			CHANNELS 3 Zrotation Xrotation Yrotation
			JOINT RightAnkle
			{
				OFFSET -0.0000 -44.4337 0.0000
				CHANNELS 3 Zrotation Xrotation Yrotation
				End Site
				{
					OFFSET -0.0000 -4.8889 16.6222
				}
			}
		}
	}
}
MOTION
Frames: 18
Frame Time: 0.010000
-7.7312 87.1849 93.8648 2.9822 0.9355 179.6711 358.1556 3.4620 355.9298 4.1977 10.5908 355.4848 5.3521 341.5566 2.6187 356.8978 9.3874 2.0180 339.2228 358.9714 5.6009 305.8163 30.5337 349.2552 16.7543 354.1251 322.7214 81.9387 359.3816 341.0618 21.1124 358.4595 351.7257 59.9485 38.5537 4.6684 341.1425 354.9927 29.6670 280.0738 352.7785 25.4932 0.3794 5.9693 354.4706 358.2406 8.3991 356.0550 0.2678 348.3373 22.5061 2.2413 333.7056 5.2272 1.6239 31.3569 0.1184 357.1070 353.3376 342.1628 
-7.7012 87.1355 93.5504 2.9027 0.9620 179.8066 358.1889 3.6081 355.8486 4.2268 10.6122 355.3983 5.4429 341.5795 2.6557 356.8060 9.2616 2.0435 339.1319 358.9233 5.7705 306.3996 31.8327 348.6506 17.5106 353.8565 323.0941 81.7864 359.1960 342.1275 21.0765 358.4362 351.6037 60.0909 38.2839 4.3360 341.2996 355.0244 29.7053 280.0397 352.9064 25.6359 0.3094 6.2273 354.4382 358.2869 8.3357 356.0034 0.6476 348.5266 22.6096 2.0846 333.6208 5.2730 1.4227 30.1293 0.4914 357.6470 353.7897 342.3343 
-7.6513 87.0783 93.2298 2.7953 0.8951 179.8997 358.1711 3.6204 355.7953 4.2524 10.7095 355.3379 5.6667 341.3816 2.6443 356.3519 9.3945 2.0204 339.1245 358.9295 5.7932 306.6910 32.2624 348.2367 17.8083 353.8431 323.0544 81.7892 359.0925 342.6692 21.0482 358.4173 351.4901 60.2500 38.0830 4.0350 341.3826 355.0461 29.6765 280.1920 353.0802 25.6995 0.2420 6.3765 354.4885 358.3218 8.3101 355.9433 0.2527 348.1023 22.5076 1.9509 333.4347 5.4538 1.3349 28.9687 0.5046 357.7324 354.2647 342.5022 
-7.5475 87.0153 93.0260 2.7233 0.4552 180.2215 358.1067 3.4710 355.6354 4.4103 10.5980 355.1684 5.7697 341.2975 2.6293 356.2755 9.3377 1.9913 339.1314 358.9405 5.6980 306.9906 32.6790 347.8724 17.9591 353.8549 323.0618 81.8435 359.0504 342.7313 20.9381 358.3906 351.2127 60.5570 37.5879 3.8391 341.6094 355.1356 29.6176 280.1933 353.2816 26.1027 0.2882 5.9021 354.3402 358.2448 8.5562 355.6913 0.2640 347.9113 22.5937 1.7904 332.8161 5.3486 0.9825 27.9105 1.0433 358.1424 354.6469 342.7154 
-7.4792 86.9394 92.7763 2.5623 0.1883 180.3859 358.0324 3.4691 355.5574 4.4575 10.4913 355.0875 5.8854 341.2787 2.7069 356.2325 9.2831 2.0553 339.1468 358.9669 5.6013 307.0980 32.3361 347.7412 17.6674 354.0266 322.6647 81.9952 359.1789 342.5749 20.8906 358.3792 351.1656 60.8166 37.2706 3.4373 341.7550 355.1751 29.5587 280.2250 353.3046 26.2623 0.1769 5.7057 354.4192 358.2875 8.6989 355.5831 0.1428 347.7103 22.4595 1.6024 332.3189 5.6133 0.8562 27.0103 1.4692 358.9127 354.8807 342.6699 
-7.4083 86.8615 92.4010 2.4336 0.2358 180.4578 358.0311 3.6026 355.5147 4.4406 10.5405 355.0423 5.9327 341.3129 2.7627 356.2336 9.1585 2.1019 339.1563 358.9627 5.5583 307.2233 32.3535 347.5644 17.6788 353.9478 322.3472 81.9461 359.3759 342.6154 20.8459 358.3655 351.1331 61.0724 37.0082 2.9983 341.8838 355.2151 29.3453 280.1488 352.9305 26.3901 0.0950 6.0361 354.4901 358.3169 8.6479 355.3988 0.0704 347.4878 22.4918 1.4609 332.3080 5.8829 0.7234 25.9011 1.7024 0.1538 354.7782 340.3581 
-7.3431 86.7824 92.0456 2.2772 0.2090 180.5715 358.0284 3.7223 355.4565 4.4193 10.5241 354.9842 5.9917 341.3233 2.7819 356.1714 9.0548 2.1093 339.1635 358.9835 5.4012 307.2534 32.1983 347.5091 17.6083 353.9218 322.0652 81.8229 359.4891 342.4921 20.8146 358.3602 351.0365 61.3076 36.7549 2.5927 341.9533 355.2775 29.2138 280.2106 352.8094 26.4001 359.9894 6.2535 354.4909 358.3373 8.6164 355.5027 0.1198 347.3172 22.3259 1.2508 332.2226 6.0794 0.6588 24.8172 2.0584 358.7546 355.1514 342.2093 
-7.2667 86.6999 91.7133 2.1167 0.0731 180.7122 358.0121 3.7714 355.3985 4.4129 10.4845 354.9268 6.0819 341.3191 2.8158 356.0968 8.9604 2.1295 339.1878 359.0311 5.2036 307.1969 31.8722 347.5054 17.4895 353.9236 321.6734 81.7901 359.5456 342.2442 20.7749 358.3386 350.9243 61.5333 36.5175 2.2232 342.0319 355.3018 29.1863 280.3022 353.0748 26.4591 359.8804 6.2934 354.5565 358.3790 8.6776 355.4603 0.0243 347.1014 22.1772 1.0346 331.9955 6.2709 0.6103 23.8956 2.0663 358.7838 355.2065 342.0922 
-7.1707 86.6150 91.3516 1.9829 359.9909 180.8437 358.0075 3.8543 355.3450 4.4245 10.4564 354.8713 6.1453 341.2978 2.8515 356.0401 8.9034 2.1561 339.1822 359.0447 5.1376 307.3118 32.0091 347.3087 17.6406 353.7833 321.4776 81.6546 359.5455 342.2548 20.7296 358.3247 350.8296 61.7637 36.2504 1.8332 342.1476 355.3381 29.1361 280.3596 353.3455 26.6308 359.8126 6.4176 354.6224 358.4059 8.7214 355.3527 359.8716 346.8292 22.0809 0.8589 331.8492 6.4524 0.5849 23.0728 1.7788 358.9224 354.8591 342.1880 
-7.0758 86.5240 90.9762 1.8320 359.9213 180.9814 358.0167 3.9546 355.2808 4.4087 10.4160 354.8088 6.1957 341.2712 2.8812 355.9789 8.8679 2.1793 339.1576 359.0278 5.1888 307.5880 32.4656 346.9153 17.8912 353.6386 321.5039 81.6310 359.4573 342.5368 20.6902 358.3124 350.7611 62.0051 36.0037 1.4109 342.2377 355.3767 29.0163 280.4073 353.3809 26.7239 359.7471 6.6199 354.6147 358.4015 8.6594 355.2279 359.7143 346.5944 22.0470 0.6505 331.7278 6.6273 0.6010 22.3109 1.3857 358.9604 354.3812 342.0074 
-6.9752 86.4313 90.5852 1.6577 359.8456 181.1101 358.0255 4.0547 355.2190 4.3479 10.3177 354.7549 6.2794 341.3570 2.9164 355.8982 8.7381 2.2056 339.0797 359.0164 5.3208 308.0565 33.2233 346.3944 18.2539 353.4898 321.7549 81.5992 359.2768 343.0431 20.7024 358.2930 350.7403 62.2345 35.7713 0.9145 342.3143 355.4068 28.9217 280.4946 353.4354 26.7892 359.6878 6.8295 354.5826 358.3508 8.6000 355.0883 359.5657 346.3520 22.0848 0.4165 331.6134 6.8521 0.6447 21.6367 1.2011 359.0718 353.9175 341.5632 
-6.8508 86.3342 90.1534 1.5192 359.7992 181.2155 358.0466 4.1712 355.1728 4.3046 10.1370 354.7177 6.3521 341.5909 2.9525 355.8306 8.5562 2.2416 338.9426 359.0254 5.2601 308.2639 33.4163 346.3409 18.4240 353.4456 321.7003 81.5906 359.2341 343.2988 20.7597 358.2985 350.7728 62.4617 35.4510 0.3099 342.4552 355.4722 28.7915 280.5643 353.4086 26.9729 359.6543 7.0697 354.5554 358.3173 8.5990 355.0685 359.5673 346.1004 22.0779 0.2595 331.5628 7.1952 0.7022 21.0665 1.0368 358.7508 353.4935 341.7248 
-6.6997 86.2456 89.7414 1.4188 359.5730 181.2479 358.0159 4.0633 355.1818 4.3748 10.1686 354.7201 6.2932 341.4772 3.0107 355.9469 8.5771 2.3001 338.9173 359.0123 5.4071 308.5906 33.9573 345.8591 18.7410 353.3292 321.8483 81.4976 359.2211 343.6931 20.6820 358.3288 350.7342 62.6593 35.2320 359.9796 342.5956 355.5347 28.6581 280.6008 353.3731 27.2091 359.6551 7.1043 354.6345 358.3209 8.6314 355.0032 359.4882 345.8676 22.0246 0.2342 331.2722 7.5036 0.6503 20.7154 1.0666 358.8344 353.0728 341.3895 
-6.5571 86.1405 89.2567 1.2845 359.6218 181.3297 357.9780 4.1004 355.1754 4.4346 10.4789 354.6941 6.3564 341.1313 3.0382 355.8107 8.6417 2.3029 339.0075 358.9891 5.6266 309.0146 34.8870 345.1067 19.3298 353.0898 322.0662 81.2752 359.2261 344.3553 20.5027 358.3239 350.5700 62.9002 35.0844 359.8499 342.6569 355.5614 28.5909 280.6416 353.4632 27.3338 359.6375 7.4854 354.6584 358.3233 8.6280 354.8452 359.4036 345.5643 22.0302 0.1018 331.3410 7.7343 0.7237 20.3812 0.7683 358.8925 352.7097 341.2614 
-6.4549 86.0379 88.8000 1.0752 359.6532 181.5702 358.0596 4.3905 355.0650 4.2889 10.1550 354.6069 6.4295 341.3955 3.0064 355.7598 8.4065 2.2645 338.8027 358.9355 5.7804 309.7639 36.4140 344.6045 20.2570 352.7594 322.6445 80.9840 358.9561 345.4731 20.5689 358.2759 350.5247 63.1616 34.8030 359.1863 342.7845 355.6012 28.4718 280.7011 353.4342 27.6343 359.5064 7.7433 354.3657 358.3499 8.7691 354.8412 358.9312 345.1085 22.0662 359.7734 331.3390 7.5770 0.7871 20.2425 0.7262 358.8554 352.3601 340.9313 
-6.3095 85.9201 88.3288 0.9251 359.4984 181.5965 358.0656 4.3310 355.0702 4.2670 10.1929 354.6144 6.5041 341.3279 3.1077 355.6860 8.3851 2.3629 338.7242 358.8957 6.0177 310.1880 37.1129 344.1615 20.7786 352.6717 322.8766 80.9314 358.7243 346.0718 20.5135 358.3102 350.6100 63.3830 34.5075 358.7373 342.9916 355.6616 28.4063 280.8162 353.4955 28.0764 359.4535 7.9012 354.1911 358.3297 8.7936 354.9738 359.0086 344.8769 21.9636 359.6942 331.0984 7.4989 0.7900 20.4517 0.4734 359.1978 352.1368 340.9926 
-6.1489 85.7999 87.8501 0.7718 359.3814 181.6499 358.0624 4.3620 355.0751 4.2745 10.1577 354.6190 6.3999 341.2303 3.0933 355.8271 8.3671 2.3446 338.6355 358.8531 6.2627 310.7918 38.3306 343.5945 21.5942 352.4284 323.2760 80.7873 358.5265 347.0237 20.4558 358.3080 350.5361 63.5771 34.3299 358.3809 343.0800 355.7062 28.3339 280.8348 353.5276 28.3724 359.4465 8.0937 353.8970 358.2371 8.8383 355.0160 359.0147 344.5503 22.0959 359.5891 330.8804 7.4939 0.9067 20.9076 359.7405 359.9696 352.3362 341.3283 
-5.9757 85.6734 87.3611 0.6332 359.2902 181.6964 358.0324 4.3528 355.1002 4.3385 10.3683 354.6294 6.4060 340.8616 3.1258 355.8128 8.3963 2.3567 338.7137 358.8278 6.4652 311.2052 39.0316 342.9670 22.0681 352.3647 323.4463 80.8012 358.4426 347.6025 20.2735 358.2985 350.3879 63.8020 34.1850 358.2314 343.1802 355.7373 28.2848 280.8842 353.6012 28.6496 359.4278 8.2452 353.8100 358.2270 9.0269 354.8990 358.9774 344.1506 22.1535 359.5004 330.6574 7.4972 1.0638 21.6144 359.5001 0.7973 353.2775 341.3640 
